<svg xmlns:dc="http://purl.org/dc/elements/1.1/" xmlns:cc="http://creativecommons.org/ns#" xmlns:rdf="http://www.w3.org/1999/02/22-rdf-syntax-ns#" xmlns:svg="http://www.w3.org/2000/svg" xmlns="http://www.w3.org/2000/svg" xmlns:sodipodi="http://sodipodi.sourceforge.net/DTD/sodipodi-0.dtd" xmlns:inkscape="http://www.inkscape.org/namespaces/inkscape" viewBox="0 0 465.54701 502.542125" version="1.1" x="0px" y="0px"><g transform="translate(-207.91102,-367.27417)"><path style="" d="m 379.34502,367.27417 c 0,27.6304 -42.538,69.9484 -48.544,102.5917 -3.854,21.3755 6.416,32.8846 13.997,38.2697 l 13.996,0 c -0.787,-2.4428 -1.027,-5.3374 -0.415,-8.8998 2.527,-14.0431 20.955,-32.2852 20.955,-44.2571 0,11.9719 18.388,30.214 20.956,44.2571 0.703,3.5621 0.371,6.4971 -0.416,8.8998 l 13.997,0 c 7.539,-5.3851 17.812,-16.8942 13.835,-38.2697 -5.84,-32.6433 -48.383,-75.0028 -48.383,-102.5917 z m -72.817,164.4057 c -15.949,0 -29.047,13.058 -29.047,28.9653 l 0,139.2436 203.566,0 0,-139.2436 c 0,-15.9073 -12.932,-28.9653 -29.046,-28.9653 l -145.473,0 z m 297.986,77.5103 c -38.029,0 -69.015,30.9868 -69.015,69.015 0,8.6993 7.078,15.7772 15.777,15.7772 8.741,0 15.777,-7.0367 15.777,-15.7772 0,-20.6297 16.789,-37.4609 37.461,-37.4609 20.629,0 37.379,16.8312 37.379,37.4609 0,20.6712 -16.75,37.4607 -37.379,37.4607 l -93.207,0 -0.07,0 -303.326,0 0,24.7577 c 0,15.9485 12.855,28.8843 28.804,28.8843 l 285.283,0 c 13.629,0 24.97,-9.4514 27.993,-22.1687 l 54.533,0 c 38.028,0 68.934,-30.9866 68.934,-69.0149 0,-37.9867 -30.906,-68.9341 -68.934,-68.9341 z" fill="#000000"/></g><text x="0" y="417.0337" fill="#000000" font-size="5px" font-weight="bold" font-family="'Helvetica Neue', Helvetica, Arial-Unicode, Arial, Sans-serif">Created by Hopkins</text><text x="0" y="422.0337" fill="#000000" font-size="5px" font-weight="bold" font-family="'Helvetica Neue', Helvetica, Arial-Unicode, Arial, Sans-serif">from the Noun Project</text></svg>